<svg width="300" height="225" viewBox="0 0 300 225" fill="none" xmlns="http://www.w3.org/2000/svg">
<g clip-path="url(#clip0)">
<path d="M0 20C0 8.9543 8.95431 0 20 0H280C291.046 0 300 8.95431 300 20V205C300 216.046 291.046 225 280 225H20C8.9543 225 0 216.046 0 205V20Z" fill="url(#paint0_linear)" style="mix-blend-mode:hard-light"/>
<path d="M361 77.1062L211.451 64.9299C-223.514 136.281 151.485 163.108 237.373 223.369H299.186L361 77.1062Z" fill="#66471A"/>
<g filter="url(#filter0_bd)">
<path d="M135.224 99.0428L253.839 137.385L126.441 223.391L135.224 99.0428Z" fill="#ECB788" style="mix-blend-mode:color-burn"/>
</g>
<path d="M21.7578 55H26.1816V47.3389H29.7266L33.667 55H38.6768L34.2236 46.6797C36.5674 45.7568 38.0469 43.4424 38.0469 40.6592V40.6299C38.0469 36.3818 35.2344 33.8623 30.4883 33.8623H21.7578V55ZM26.1816 43.9844V37.3193H29.9463C32.1289 37.3193 33.5205 38.6084 33.5205 40.6299V40.6592C33.5205 42.7393 32.2021 43.9844 30.0049 43.9844H26.1816ZM47.6123 55.3223C52.0947 55.3223 54.2627 52.6709 54.7461 50.3564L54.79 50.1953H50.8643L50.835 50.2832C50.5273 51.1621 49.458 52.1289 47.7002 52.1289C45.5176 52.1289 44.1553 50.6641 44.1113 48.1592H54.9219V46.8408C54.9219 42.0947 52.0361 38.9746 47.4365 38.9746C42.8369 38.9746 39.8926 42.168 39.8926 47.1631V47.1777C39.8926 52.2021 42.8076 55.3223 47.6123 55.3223ZM47.5098 42.168C49.2822 42.168 50.5566 43.2959 50.8203 45.4639H44.1553C44.4336 43.3398 45.752 42.168 47.5098 42.168ZM61.8066 55.249C63.8721 55.249 65.542 54.2676 66.4355 52.6562H66.5234V55H70.8008V44.2334C70.8008 41.0693 68.1787 38.9746 64.1211 38.9746C59.9756 38.9746 57.4854 41.0547 57.251 43.9551L57.2363 44.1309H61.1475L61.1768 43.999C61.3818 42.9883 62.3486 42.2412 63.9453 42.2412C65.6152 42.2412 66.5234 43.1055 66.5234 44.4971V45.4639L62.6416 45.6982C58.7451 45.9473 56.5332 47.6172 56.5332 50.4736V50.5029C56.5332 53.2715 58.6572 55.249 61.8066 55.249ZM60.7666 50.2832V50.2539C60.7666 49.1406 61.6309 48.4375 63.2861 48.335L66.5234 48.1299V49.2578C66.5234 50.8984 65.1172 52.1289 63.1982 52.1289C61.7188 52.1289 60.7666 51.4404 60.7666 50.2832ZM73.6719 55H77.9492V33.8623H73.6719V55ZM87.1484 55H101.152V51.3525H91.5723V46.0352H100.61V42.5781H91.5723V37.5098H101.152V33.8623H87.1484V55ZM110.439 55.3223C114.482 55.3223 117.31 53.3008 117.31 50.2246V50.21C117.31 47.8955 115.962 46.6064 112.681 45.918L110.015 45.3467C108.433 45.0098 107.891 44.4824 107.891 43.6768V43.6621C107.891 42.6514 108.813 41.9922 110.293 41.9922C111.875 41.9922 112.798 42.8418 112.944 43.9697L112.959 44.0869H116.899V43.9404C116.797 41.1865 114.468 38.9746 110.293 38.9746C106.294 38.9746 103.716 40.9082 103.716 43.8965V43.9111C103.716 46.2549 105.254 47.7783 108.301 48.4229L110.967 48.9795C112.505 49.3164 113.032 49.7998 113.032 50.6348V50.6494C113.032 51.6602 112.051 52.29 110.439 52.29C108.726 52.29 107.803 51.5723 107.524 50.3418L107.495 50.21H103.32L103.335 50.3418C103.672 53.3154 106.089 55.3223 110.439 55.3223ZM125.659 55.3223C126.553 55.3223 127.241 55.2344 127.725 55.1611V52.0264C127.461 52.0557 127.183 52.0996 126.802 52.0996C125.513 52.0996 124.854 51.6016 124.854 50.1367V42.5195H127.725V39.2969H124.854V35.459H120.532V39.2969H118.35V42.5195H120.532V50.6055C120.532 53.9746 122.173 55.3223 125.659 55.3223ZM134.609 55.249C136.675 55.249 138.345 54.2676 139.238 52.6562H139.326V55H143.604V44.2334C143.604 41.0693 140.981 38.9746 136.924 38.9746C132.778 38.9746 130.288 41.0547 130.054 43.9551L130.039 44.1309H133.95L133.979 43.999C134.185 42.9883 135.151 42.2412 136.748 42.2412C138.418 42.2412 139.326 43.1055 139.326 44.4971V45.4639L135.444 45.6982C131.548 45.9473 129.336 47.6172 129.336 50.4736V50.5029C129.336 53.2715 131.46 55.249 134.609 55.249ZM133.569 50.2832V50.2539C133.569 49.1406 134.434 48.4375 136.089 48.335L139.326 48.1299V49.2578C139.326 50.8984 137.92 52.1289 136.001 52.1289C134.521 52.1289 133.569 51.4404 133.569 50.2832ZM152.612 55.3223C153.506 55.3223 154.194 55.2344 154.678 55.1611V52.0264C154.414 52.0557 154.136 52.0996 153.755 52.0996C152.466 52.0996 151.807 51.6016 151.807 50.1367V42.5195H154.678V39.2969H151.807V35.459H147.485V39.2969H145.303V42.5195H147.485V50.6055C147.485 53.9746 149.126 55.3223 152.612 55.3223ZM163.95 55.3223C168.433 55.3223 170.601 52.6709 171.084 50.3564L171.128 50.1953H167.202L167.173 50.2832C166.865 51.1621 165.796 52.1289 164.038 52.1289C161.855 52.1289 160.493 50.6641 160.449 48.1592H171.26V46.8408C171.26 42.0947 168.374 38.9746 163.774 38.9746C159.175 38.9746 156.23 42.168 156.23 47.1631V47.1777C156.23 52.2021 159.146 55.3223 163.95 55.3223ZM163.848 42.168C165.62 42.168 166.895 43.2959 167.158 45.4639H160.493C160.771 43.3398 162.09 42.168 163.848 42.168Z" fill="black"/>
<path d="M28.6582 202H31.3125V197.263L35.7334 189.317H32.8594L30.0205 194.731H29.959L27.1113 189.317H24.2461L28.6582 197.263V202ZM39.1963 202.193C42.0439 202.193 43.8633 200.365 43.8633 197.289V197.271C43.8633 194.222 42.0088 192.385 39.1875 192.385C36.375 192.385 34.5293 194.239 34.5293 197.271V197.289C34.5293 200.356 36.3311 202.193 39.1963 202.193ZM39.2051 200.181C37.9395 200.181 37.1396 199.135 37.1396 197.289V197.271C37.1396 195.452 37.9482 194.397 39.1875 194.397C40.4355 194.397 41.2529 195.452 41.2529 197.271V197.289C41.2529 199.126 40.4531 200.181 39.2051 200.181ZM48.3984 202.193C49.8223 202.193 50.7891 201.525 51.2725 200.444H51.3252V202H53.8916V192.578H51.3252V197.992C51.3252 199.223 50.5957 200.066 49.4443 200.066C48.293 200.066 47.7129 199.354 47.7129 198.124V192.578H45.1465V198.66C45.1465 200.866 46.3242 202.193 48.3984 202.193ZM55.5615 202H58.1279V196.727C58.1279 195.355 58.8662 194.6 60.1318 194.6C60.501 194.6 60.8525 194.652 61.0635 194.74V192.481C60.8701 192.429 60.6064 192.385 60.3252 192.385C59.2266 192.385 58.4619 193.062 58.1807 194.222H58.1279V192.578H55.5615V202ZM68.5869 202H71.1797L73.5176 193.501H73.5703L75.8994 202H78.4922L81.8584 189.317H79.1074L77.0947 198.405H77.042L74.7041 189.317H72.375L70.0371 198.405H69.9844L67.9805 189.317H65.2295L68.5869 202ZM84.6797 202.149C85.9189 202.149 86.9209 201.561 87.457 200.594H87.5098V202H90.0762V195.54C90.0762 193.642 88.5029 192.385 86.0684 192.385C83.5811 192.385 82.0869 193.633 81.9463 195.373L81.9375 195.479H84.2842L84.3018 195.399C84.4248 194.793 85.0049 194.345 85.9629 194.345C86.9648 194.345 87.5098 194.863 87.5098 195.698V196.278L85.1807 196.419C82.8428 196.568 81.5156 197.57 81.5156 199.284V199.302C81.5156 200.963 82.79 202.149 84.6797 202.149ZM84.0557 199.17V199.152C84.0557 198.484 84.5742 198.062 85.5674 198.001L87.5098 197.878V198.555C87.5098 199.539 86.666 200.277 85.5146 200.277C84.627 200.277 84.0557 199.864 84.0557 199.17ZM93.1611 205.103C95.2529 205.103 96.5186 204.391 97.2568 202.167L100.491 192.578H97.7842L95.7891 199.943H95.7188L93.7324 192.578H90.9111L94.2422 202L94.1279 202.308C93.8994 202.949 93.4775 203.169 92.7129 203.169C92.335 203.169 92.0361 203.116 91.8516 203.081V204.988C92.1504 205.041 92.6602 205.103 93.1611 205.103Z" fill="black"/>
</g>
<defs>
<filter id="filter0_bd" x="62.7507" y="47.2651" width="199.863" height="184.9" filterUnits="userSpaceOnUse" color-interpolation-filters="sRGB">
<feFlood flood-opacity="0" result="BackgroundImageFix"/>
<feGaussianBlur in="BackgroundImage" stdDeviation="4.38715"/>
<feComposite in2="SourceAlpha" operator="in" result="effect1_backgroundBlur"/>
<feColorMatrix in="SourceAlpha" type="matrix" values="0 0 0 0 0 0 0 0 0 0 0 0 0 0 0 0 0 0 127 0"/>
<feOffset dx="3.76042" dy="3.76042"/>
<feGaussianBlur stdDeviation="0.501389"/>
<feColorMatrix type="matrix" values="0 0 0 0 0.92549 0 0 0 0 0.717647 0 0 0 0 0.521569 0 0 0 1 0"/>
<feBlend mode="normal" in2="effect1_backgroundBlur" result="effect2_dropShadow"/>
<feBlend mode="normal" in="SourceGraphic" in2="effect2_dropShadow" result="shape"/>
</filter>
<linearGradient id="paint0_linear" x1="-135.937" y1="-10.75" x2="364.665" y2="75.9366" gradientUnits="userSpaceOnUse">
<stop stop-color="#CFA40A"/>
<stop offset="0.67965" stop-color="#CF390A" stop-opacity="0.37"/>
<stop offset="1" stop-color="#CF450A" stop-opacity="0"/>
<stop offset="1" stop-color="#CF690A" stop-opacity="0.0689798"/>
</linearGradient>
<clipPath id="clip0">
<path d="M0 20C0 8.9543 8.95431 0 20 0H280C291.046 0 300 8.95431 300 20V205C300 216.046 291.046 225 280 225H20C8.9543 225 0 216.046 0 205V20Z" fill="white"/>
</clipPath>
</defs>
</svg>
