<svg width="300" height="225" viewBox="0 0 300 225" fill="none" xmlns="http://www.w3.org/2000/svg">
<g clip-path="url(#clip0)">
<path d="M0 20C0 8.9543 8.95431 0 20 0H280C291.046 0 300 8.95431 300 20V205C300 216.046 291.046 225 280 225H20C8.9543 225 0 216.046 0 205V20Z" fill="url(#paint0_linear)" style="mix-blend-mode:hard-light"/>
<g filter="url(#filter0_d)">
<path d="M21.7578 57H25.6982V42.7031H25.8154L31.5283 57H34.3115L40.0098 42.7031H40.1416V57H44.082V35.8623H38.9697L32.9639 51.0527H32.876L26.8701 35.8623H21.7578V57ZM54.4385 57.3223C59.1846 57.3223 62.2168 54.2754 62.2168 49.1484V49.1191C62.2168 44.0361 59.126 40.9746 54.4238 40.9746C49.7363 40.9746 46.6602 44.0654 46.6602 49.1191V49.1484C46.6602 54.2607 49.6631 57.3223 54.4385 57.3223ZM54.4531 53.9678C52.3438 53.9678 51.0107 52.2246 51.0107 49.1484V49.1191C51.0107 46.0869 52.3584 44.3291 54.4238 44.3291C56.5039 44.3291 57.8662 46.0869 57.8662 49.1191V49.1484C57.8662 52.21 56.5332 53.9678 54.4531 53.9678ZM64.4287 57H68.7061V47.9766C68.7061 45.9258 69.9219 44.5195 71.8408 44.5195C73.7598 44.5195 74.7266 45.6914 74.7266 47.7422V57H79.0039V46.8633C79.0039 43.1865 77.041 40.9746 73.584 40.9746C71.2109 40.9746 69.5996 42.0732 68.7939 43.875H68.7061V41.2969H64.4287V57ZM83.9404 39.2754C85.2295 39.2754 86.2256 38.2646 86.2256 37.0488C86.2256 35.833 85.2295 34.8223 83.9404 34.8223C82.6514 34.8223 81.6553 35.833 81.6553 37.0488C81.6553 38.2646 82.6514 39.2754 83.9404 39.2754ZM81.8018 57H86.0791V41.2969H81.8018V57ZM96.1279 57.3223C100.317 57.3223 103.027 54.7148 103.232 51.2871V51.1992H99.248L99.2334 51.3311C98.9404 52.9131 97.8711 53.9678 96.1572 53.9678C94.0479 53.9678 92.7295 52.2246 92.7295 49.1484V49.1338C92.7295 46.1309 94.0479 44.3291 96.1426 44.3291C97.915 44.3291 98.9551 45.4717 99.2188 46.9658L99.248 47.0977H103.218V46.9951C103.057 43.5967 100.347 40.9746 96.084 40.9746C91.3818 40.9746 88.3789 44.0947 88.3789 49.1191V49.1338C88.3789 54.2021 91.3379 57.3223 96.1279 57.3223ZM109.971 57.249C112.036 57.249 113.706 56.2676 114.6 54.6562H114.688V57H118.965V46.2334C118.965 43.0693 116.343 40.9746 112.285 40.9746C108.14 40.9746 105.649 43.0547 105.415 45.9551L105.4 46.1309H109.312L109.341 45.999C109.546 44.9883 110.513 44.2412 112.109 44.2412C113.779 44.2412 114.688 45.1055 114.688 46.4971V47.4639L110.806 47.6982C106.909 47.9473 104.697 49.6172 104.697 52.4736V52.5029C104.697 55.2715 106.821 57.249 109.971 57.249ZM108.931 52.2832V52.2539C108.931 51.1406 109.795 50.4375 111.45 50.335L114.688 50.1299V51.2578C114.688 52.8984 113.281 54.1289 111.362 54.1289C109.883 54.1289 108.931 53.4404 108.931 52.2832ZM128.047 57H141.714V53.3525H132.471V35.8623H128.047V57ZM150.942 57.3223C155.688 57.3223 158.721 54.2754 158.721 49.1484V49.1191C158.721 44.0361 155.63 40.9746 150.928 40.9746C146.24 40.9746 143.164 44.0654 143.164 49.1191V49.1484C143.164 54.2607 146.167 57.3223 150.942 57.3223ZM150.957 53.9678C148.848 53.9678 147.515 52.2246 147.515 49.1484V49.1191C147.515 46.0869 148.862 44.3291 150.928 44.3291C153.008 44.3291 154.37 46.0869 154.37 49.1191V49.1484C154.37 52.21 153.037 53.9678 150.957 53.9678ZM160.933 57H165.21V48.2109C165.21 45.9258 166.44 44.666 168.55 44.666C169.165 44.666 169.751 44.7539 170.103 44.9004V41.1357C169.78 41.0479 169.341 40.9746 168.872 40.9746C167.041 40.9746 165.767 42.1025 165.298 44.0361H165.21V41.2969H160.933V57ZM178.481 57.3223C182.964 57.3223 185.132 54.6709 185.615 52.3564L185.659 52.1953H181.733L181.704 52.2832C181.396 53.1621 180.327 54.1289 178.569 54.1289C176.387 54.1289 175.024 52.6641 174.98 50.1592H185.791V48.8408C185.791 44.0947 182.905 40.9746 178.306 40.9746C173.706 40.9746 170.762 44.168 170.762 49.1631V49.1777C170.762 54.2021 173.677 57.3223 178.481 57.3223ZM178.379 44.168C180.151 44.168 181.426 45.2959 181.689 47.4639H175.024C175.303 45.3398 176.621 44.168 178.379 44.168ZM194.463 57.3223C198.506 57.3223 201.333 55.3008 201.333 52.2246V52.21C201.333 49.8955 199.985 48.6064 196.704 47.918L194.038 47.3467C192.456 47.0098 191.914 46.4824 191.914 45.6768V45.6621C191.914 44.6514 192.837 43.9922 194.316 43.9922C195.898 43.9922 196.821 44.8418 196.968 45.9697L196.982 46.0869H200.923V45.9404C200.82 43.1865 198.491 40.9746 194.316 40.9746C190.317 40.9746 187.739 42.9082 187.739 45.8965V45.9111C187.739 48.2549 189.277 49.7783 192.324 50.4229L194.99 50.9795C196.528 51.3164 197.056 51.7998 197.056 52.6348V52.6494C197.056 53.6602 196.074 54.29 194.463 54.29C192.749 54.29 191.826 53.5723 191.548 52.3418L191.519 52.21H187.344L187.358 52.3418C187.695 55.3154 190.112 57.3223 194.463 57.3223Z" fill="#DD791D"/>
</g>
<path d="M20.624 203H22.9971L24.0518 199.722H28.7451L29.8086 203H32.1816L27.6816 190.317H25.124L20.624 203ZM26.3281 192.673H26.4775L28.1826 197.973H24.623L26.3281 192.673ZM34.3613 203H42.4473V201.093H36.6289V190.317H34.3613V203ZM44.8906 203H52.9766V201.093H47.1582V190.317H44.8906V203ZM63.374 203H65.6416V192.225H69.5527V190.317H59.4717V192.225H63.374V203ZM71.9258 203H74.1934V197.498H80.3633V203H82.6221V190.317H80.3633V195.591H74.1934V190.317H71.9258V203ZM85.7598 203H93.9688V201.093H88.0273V197.463H93.6436V195.661H88.0273V192.225H93.9688V190.317H85.7598V203ZM101.58 203H103.848V190.317H101.58V203ZM106.977 203H109.165V194.264H109.306L115.537 203H117.497V190.317H115.317V199.054H115.177L108.945 190.317H106.977V203ZM120.635 203H122.902V197.823H128.22V195.978H122.902V192.225H128.721V190.317H120.635V203ZM136.701 203.316C140.401 203.316 142.695 200.741 142.695 196.663V196.646C142.695 192.559 140.393 190.001 136.701 190.001C133.019 190.001 130.698 192.559 130.698 196.646V196.663C130.698 200.741 132.983 203.316 136.701 203.316ZM136.701 201.356C134.416 201.356 133.01 199.511 133.01 196.663V196.646C133.01 193.78 134.451 191.961 136.701 191.961C138.951 191.961 140.384 193.78 140.384 196.646V196.663C140.384 199.511 138.96 201.356 136.701 201.356Z" fill="#052A56"/>
</g>
<defs>
<filter id="filter0_d" x="17.7578" y="34.8223" width="187.575" height="30.5" filterUnits="userSpaceOnUse" color-interpolation-filters="sRGB">
<feFlood flood-opacity="0" result="BackgroundImageFix"/>
<feColorMatrix in="SourceAlpha" type="matrix" values="0 0 0 0 0 0 0 0 0 0 0 0 0 0 0 0 0 0 127 0"/>
<feOffset dy="4"/>
<feGaussianBlur stdDeviation="2"/>
<feColorMatrix type="matrix" values="0 0 0 0 0 0 0 0 0 0 0 0 0 0 0 0 0 0 0.25 0"/>
<feBlend mode="normal" in2="BackgroundImageFix" result="effect1_dropShadow"/>
<feBlend mode="normal" in="SourceGraphic" in2="effect1_dropShadow" result="shape"/>
</filter>
<linearGradient id="paint0_linear" x1="-135.937" y1="-10.75" x2="364.665" y2="75.9366" gradientUnits="userSpaceOnUse">
<stop stop-color="#CFA40A"/>
<stop offset="0.67965" stop-color="#CF390A" stop-opacity="0.37"/>
<stop offset="1" stop-color="#CF450A" stop-opacity="0"/>
<stop offset="1" stop-color="#CF690A" stop-opacity="0.0689798"/>
</linearGradient>
<clipPath id="clip0">
<path d="M0 20C0 8.9543 8.95431 0 20 0H280C291.046 0 300 8.95431 300 20V205C300 216.046 291.046 225 280 225H20C8.9543 225 0 216.046 0 205V20Z" fill="white"/>
</clipPath>
</defs>
</svg>
