<svg width="300" height="225" viewBox="0 0 300 225" fill="none" xmlns="http://www.w3.org/2000/svg">
<rect width="300" height="225" rx="20" fill="#C4C4C4"/>
<g clip-path="url(#clip0)">
<rect width="300" height="225" rx="20" fill="url(#paint0_linear)" style="mix-blend-mode:hard-light"/>
<path d="M131.986 96.3806L113.569 86.19C60.0042 145.904 106.184 168.357 116.761 218.79H124.374L131.986 96.3806Z" fill="#66471A"/>
<path d="M113.011 86.6965L116.032 219.919L0.0402274 157.372L113.011 86.6965Z" fill="#E9C5AB"/>
<g filter="url(#filter0_bd)">
<path d="M132.452 97.0125L248.636 134.568L123.849 218.812L132.452 97.0125Z" fill="#ECB788" style="mix-blend-mode:color-burn"/>
</g>
<g filter="url(#filter1_df)">
<path d="M134.441 96.3806C145.901 83.8982 265.814 86.19 226.525 67.7733C187.236 49.3567 313.943 74.8945 330.518 96.3806C347.093 117.867 353.354 147.211 352.126 164.277C350.899 181.343 330.64 249.239 309.031 206.758C287.423 164.277 227.793 207.372 199.268 206.758C199.268 206.758 330.518 164.277 341.322 164.277C352.126 164.277 355.441 28.4845 309.031 96.3806C262.621 164.277 134.441 96.3806 134.441 96.3806Z" fill="#EDBA7B"/>
</g>
<path d="M117.375 220.632L3.19198 159.12H1.22754V220.632H117.375Z" fill="#484242" stroke="black" stroke-width="0.245556"/>
<g filter="url(#filter2_d)">
<path d="M13.7578 59H17.6982V44.7031H17.8154L23.5283 59H26.3115L32.0098 44.7031H32.1416V59H36.082V37.8623H30.9697L24.9639 53.0527H24.876L18.8701 37.8623H13.7578V59ZM46.4385 59.3223C51.1846 59.3223 54.2168 56.2754 54.2168 51.1484V51.1191C54.2168 46.0361 51.126 42.9746 46.4238 42.9746C41.7363 42.9746 38.6602 46.0654 38.6602 51.1191V51.1484C38.6602 56.2607 41.6631 59.3223 46.4385 59.3223ZM46.4531 55.9678C44.3438 55.9678 43.0107 54.2246 43.0107 51.1484V51.1191C43.0107 48.0869 44.3584 46.3291 46.4238 46.3291C48.5039 46.3291 49.8662 48.0869 49.8662 51.1191V51.1484C49.8662 54.21 48.5332 55.9678 46.4531 55.9678ZM56.4287 59H60.7061V49.9766C60.7061 47.9258 61.9219 46.5195 63.8408 46.5195C65.7598 46.5195 66.7266 47.6914 66.7266 49.7422V59H71.0039V48.8633C71.0039 45.1865 69.041 42.9746 65.584 42.9746C63.2109 42.9746 61.5996 44.0732 60.7939 45.875H60.7061V43.2969H56.4287V59ZM75.9404 41.2754C77.2295 41.2754 78.2256 40.2646 78.2256 39.0488C78.2256 37.833 77.2295 36.8223 75.9404 36.8223C74.6514 36.8223 73.6553 37.833 73.6553 39.0488C73.6553 40.2646 74.6514 41.2754 75.9404 41.2754ZM73.8018 59H78.0791V43.2969H73.8018V59ZM88.1279 59.3223C92.3174 59.3223 95.0273 56.7148 95.2324 53.2871V53.1992H91.248L91.2334 53.3311C90.9404 54.9131 89.8711 55.9678 88.1572 55.9678C86.0479 55.9678 84.7295 54.2246 84.7295 51.1484V51.1338C84.7295 48.1309 86.0479 46.3291 88.1426 46.3291C89.915 46.3291 90.9551 47.4717 91.2188 48.9658L91.248 49.0977H95.2178V48.9951C95.0566 45.5967 92.3467 42.9746 88.084 42.9746C83.3818 42.9746 80.3789 46.0947 80.3789 51.1191V51.1338C80.3789 56.2021 83.3379 59.3223 88.1279 59.3223ZM101.971 59.249C104.036 59.249 105.706 58.2676 106.6 56.6562H106.688V59H110.965V48.2334C110.965 45.0693 108.343 42.9746 104.285 42.9746C100.14 42.9746 97.6494 45.0547 97.415 47.9551L97.4004 48.1309H101.312L101.341 47.999C101.546 46.9883 102.513 46.2412 104.109 46.2412C105.779 46.2412 106.688 47.1055 106.688 48.4971V49.4639L102.806 49.6982C98.9092 49.9473 96.6973 51.6172 96.6973 54.4736V54.5029C96.6973 57.2715 98.8213 59.249 101.971 59.249ZM100.931 54.2832V54.2539C100.931 53.1406 101.795 52.4375 103.45 52.335L106.688 52.1299V53.2578C106.688 54.8984 105.281 56.1289 103.362 56.1289C101.883 56.1289 100.931 55.4404 100.931 54.2832ZM120.047 59H133.714V55.3525H124.471V37.8623H120.047V59ZM142.942 59.3223C147.688 59.3223 150.721 56.2754 150.721 51.1484V51.1191C150.721 46.0361 147.63 42.9746 142.928 42.9746C138.24 42.9746 135.164 46.0654 135.164 51.1191V51.1484C135.164 56.2607 138.167 59.3223 142.942 59.3223ZM142.957 55.9678C140.848 55.9678 139.515 54.2246 139.515 51.1484V51.1191C139.515 48.0869 140.862 46.3291 142.928 46.3291C145.008 46.3291 146.37 48.0869 146.37 51.1191V51.1484C146.37 54.21 145.037 55.9678 142.957 55.9678ZM152.933 59H157.21V50.2109C157.21 47.9258 158.44 46.666 160.55 46.666C161.165 46.666 161.751 46.7539 162.103 46.9004V43.1357C161.78 43.0479 161.341 42.9746 160.872 42.9746C159.041 42.9746 157.767 44.1025 157.298 46.0361H157.21V43.2969H152.933V59ZM170.481 59.3223C174.964 59.3223 177.132 56.6709 177.615 54.3564L177.659 54.1953H173.733L173.704 54.2832C173.396 55.1621 172.327 56.1289 170.569 56.1289C168.387 56.1289 167.024 54.6641 166.98 52.1592H177.791V50.8408C177.791 46.0947 174.905 42.9746 170.306 42.9746C165.706 42.9746 162.762 46.168 162.762 51.1631V51.1777C162.762 56.2021 165.677 59.3223 170.481 59.3223ZM170.379 46.168C172.151 46.168 173.426 47.2959 173.689 49.4639H167.024C167.303 47.3398 168.621 46.168 170.379 46.168ZM186.463 59.3223C190.506 59.3223 193.333 57.3008 193.333 54.2246V54.21C193.333 51.8955 191.985 50.6064 188.704 49.918L186.038 49.3467C184.456 49.0098 183.914 48.4824 183.914 47.6768V47.6621C183.914 46.6514 184.837 45.9922 186.316 45.9922C187.898 45.9922 188.821 46.8418 188.968 47.9697L188.982 48.0869H192.923V47.9404C192.82 45.1865 190.491 42.9746 186.316 42.9746C182.317 42.9746 179.739 44.9082 179.739 47.8965V47.9111C179.739 50.2549 181.277 51.7783 184.324 52.4229L186.99 52.9795C188.528 53.3164 189.056 53.7998 189.056 54.6348V54.6494C189.056 55.6602 188.074 56.29 186.463 56.29C184.749 56.29 183.826 55.5723 183.548 54.3418L183.519 54.21H179.344L179.358 54.3418C179.695 57.3154 182.112 59.3223 186.463 59.3223Z" fill="white" fill-opacity="0.78"/>
</g>
<path d="M14.624 200H16.9971L18.0518 196.722H22.7451L23.8086 200H26.1816L21.6816 187.317H19.124L14.624 200ZM20.3281 189.673H20.4775L22.1826 194.973H18.623L20.3281 189.673ZM28.3613 200H36.4473V198.093H30.6289V187.317H28.3613V200ZM38.8906 200H46.9766V198.093H41.1582V187.317H38.8906V200ZM57.374 200H59.6416V189.225H63.5527V187.317H53.4717V189.225H57.374V200ZM65.9258 200H68.1934V194.498H74.3633V200H76.6221V187.317H74.3633V192.591H68.1934V187.317H65.9258V200ZM79.7598 200H87.9688V198.093H82.0273V194.463H87.6436V192.661H82.0273V189.225H87.9688V187.317H79.7598V200ZM95.5801 200H97.8477V187.317H95.5801V200ZM100.977 200H103.165V191.264H103.306L109.537 200H111.497V187.317H109.317V196.054H109.177L102.945 187.317H100.977V200ZM114.635 200H116.902V194.823H122.22V192.978H116.902V189.225H122.721V187.317H114.635V200ZM130.701 200.316C134.401 200.316 136.695 197.741 136.695 193.663V193.646C136.695 189.559 134.393 187.001 130.701 187.001C127.019 187.001 124.698 189.559 124.698 193.646V193.663C124.698 197.741 126.983 200.316 130.701 200.316ZM130.701 198.356C128.416 198.356 127.01 196.511 127.01 193.663V193.646C127.01 190.78 128.451 188.961 130.701 188.961C132.951 188.961 134.384 190.78 134.384 193.646V193.663C134.384 196.511 132.96 198.356 130.701 198.356Z" fill="#F9F0E8"/>
</g>
<defs>
<filter id="filter0_bd" x="61.4644" y="46.2962" width="195.766" height="181.11" filterUnits="userSpaceOnUse" color-interpolation-filters="sRGB">
<feFlood flood-opacity="0" result="BackgroundImageFix"/>
<feGaussianBlur in="BackgroundImage" stdDeviation="4.29722"/>
<feComposite in2="SourceAlpha" operator="in" result="effect1_backgroundBlur"/>
<feColorMatrix in="SourceAlpha" type="matrix" values="0 0 0 0 0 0 0 0 0 0 0 0 0 0 0 0 0 0 127 0"/>
<feOffset dx="3.68333" dy="3.68333"/>
<feGaussianBlur stdDeviation="0.491111"/>
<feColorMatrix type="matrix" values="0 0 0 0 0.92549 0 0 0 0 0.717647 0 0 0 0 0.521569 0 0 0 1 0"/>
<feBlend mode="normal" in2="effect1_backgroundBlur" result="effect2_dropShadow"/>
<feBlend mode="normal" in="SourceGraphic" in2="effect2_dropShadow" result="shape"/>
</filter>
<filter id="filter1_df" x="124.128" y="51.8682" width="240.917" height="182.152" filterUnits="userSpaceOnUse" color-interpolation-filters="sRGB">
<feFlood flood-opacity="0" result="BackgroundImageFix"/>
<feColorMatrix in="SourceAlpha" type="matrix" values="0 0 0 0 0 0 0 0 0 0 0 0 0 0 0 0 0 0 127 0"/>
<feOffset dx="1.22778" dy="1.96444"/>
<feGaussianBlur stdDeviation="5.77056"/>
<feColorMatrix type="matrix" values="0 0 0 0 0.898039 0 0 0 0 0.898039 0 0 0 0 0.898039 0 0 0 1 0"/>
<feBlend mode="normal" in2="BackgroundImageFix" result="effect1_dropShadow"/>
<feBlend mode="normal" in="SourceGraphic" in2="effect1_dropShadow" result="shape"/>
<feGaussianBlur stdDeviation="0.736667" result="effect2_foregroundBlur"/>
</filter>
<filter id="filter2_d" x="9.75781" y="36.8223" width="187.575" height="30.5" filterUnits="userSpaceOnUse" color-interpolation-filters="sRGB">
<feFlood flood-opacity="0" result="BackgroundImageFix"/>
<feColorMatrix in="SourceAlpha" type="matrix" values="0 0 0 0 0 0 0 0 0 0 0 0 0 0 0 0 0 0 127 0"/>
<feOffset dy="4"/>
<feGaussianBlur stdDeviation="2"/>
<feColorMatrix type="matrix" values="0 0 0 0 0 0 0 0 0 0 0 0 0 0 0 0 0 0 0.25 0"/>
<feBlend mode="normal" in2="BackgroundImageFix" result="effect1_dropShadow"/>
<feBlend mode="normal" in="SourceGraphic" in2="effect1_dropShadow" result="shape"/>
</filter>
<linearGradient id="paint0_linear" x1="-135.937" y1="-10.75" x2="364.665" y2="75.9366" gradientUnits="userSpaceOnUse">
<stop stop-color="#CFA40A"/>
<stop offset="0.67965" stop-color="#CF390A" stop-opacity="0.37"/>
<stop offset="1" stop-color="#CF450A" stop-opacity="0"/>
<stop offset="1" stop-color="#CF690A" stop-opacity="0.0689798"/>
</linearGradient>
<clipPath id="clip0">
<rect width="300" height="225" rx="20" fill="white"/>
</clipPath>
</defs>
</svg>
