<svg width="365" height="321" viewBox="0 0 365 321" fill="none" xmlns="http://www.w3.org/2000/svg">
<rect x="36" y="44" width="300" height="225" rx="20" fill="#F3C214"/>
<g style="mix-blend-mode:color-dodge">
<path d="M195.945 62.1462C205.536 62.4347 228.019 66.6468 241.221 81.1871C257.723 99.3626 261.531 111.48 275.072 127.924C285.904 141.08 295.946 154.466 299.613 159.515L314 174.661V253.421L264.493 269L250.107 253.421C234.733 245.92 198.23 224.34 175.212 198.029C146.438 165.14 126.551 133.55 102.432 117.105C83.1373 103.95 50.1045 79.8889 36 69.5029L58.4262 47L195.945 62.1462Z" fill="#DD791D" fill-opacity="0.31" style="mix-blend-mode:screen"/>
<path d="M195.945 62.1462C205.536 62.4347 228.019 66.6468 241.221 81.1871C257.723 99.3626 261.531 111.48 275.072 127.924C285.904 141.08 295.946 154.466 299.613 159.515L314 174.661V253.421L264.493 269L250.107 253.421C234.733 245.92 198.23 224.34 175.212 198.029C146.438 165.14 126.551 133.55 102.432 117.105C83.1373 103.95 50.1045 79.8889 36 69.5029L58.4262 47L195.945 62.1462Z" stroke="black"/>
</g>
<g filter="url(#filter0_i)">
<path d="M315.5 176L335 194V258.5L315.5 253.5V176Z" fill="url(#paint0_linear)" fill-opacity="0.31" style="mix-blend-mode:overlay"/>
</g>
<g filter="url(#filter1_d)">
<path d="M51.5 47H62C66.5 47 116 67.5 107.5 72C99 76.5 246.5 163 239.5 173C232.5 183 293 226.167 314.5 249V266.5H264.5C245.833 240 216.5 173 200 180C183.5 187 111.167 102.667 71 67.5L51.5 47Z" fill="#E2B26B" style="mix-blend-mode:difference"/>
<path d="M51.5 47C53.5 47 58.4 47 62 47M51.5 47L71 67.5C111.167 102.667 183.5 187 200 180C216.5 173 245.833 240 264.5 266.5H314.5V249C293 226.167 232.5 183 239.5 173C246.5 163 99 76.5 107.5 72C116 67.5 66.5 47 62 47M51.5 47H62" stroke="black"/>
</g>
<g filter="url(#filter2_d)">
<path d="M57.7578 101H61.6982V86.7031H61.8154L67.5283 101H70.3115L76.0098 86.7031H76.1416V101H80.082V79.8623H74.9697L68.9639 95.0527H68.876L62.8701 79.8623H57.7578V101ZM90.4385 101.322C95.1846 101.322 98.2168 98.2754 98.2168 93.1484V93.1191C98.2168 88.0361 95.126 84.9746 90.4238 84.9746C85.7363 84.9746 82.6602 88.0654 82.6602 93.1191V93.1484C82.6602 98.2607 85.6631 101.322 90.4385 101.322ZM90.4531 97.9678C88.3438 97.9678 87.0107 96.2246 87.0107 93.1484V93.1191C87.0107 90.0869 88.3584 88.3291 90.4238 88.3291C92.5039 88.3291 93.8662 90.0869 93.8662 93.1191V93.1484C93.8662 96.21 92.5332 97.9678 90.4531 97.9678ZM100.429 101H104.706V91.9766C104.706 89.9258 105.922 88.5195 107.841 88.5195C109.76 88.5195 110.727 89.6914 110.727 91.7422V101H115.004V90.8633C115.004 87.1865 113.041 84.9746 109.584 84.9746C107.211 84.9746 105.6 86.0732 104.794 87.875H104.706V85.2969H100.429V101ZM119.94 83.2754C121.229 83.2754 122.226 82.2646 122.226 81.0488C122.226 79.833 121.229 78.8223 119.94 78.8223C118.651 78.8223 117.655 79.833 117.655 81.0488C117.655 82.2646 118.651 83.2754 119.94 83.2754ZM117.802 101H122.079V85.2969H117.802V101ZM132.128 101.322C136.317 101.322 139.027 98.7148 139.232 95.2871V95.1992H135.248L135.233 95.3311C134.94 96.9131 133.871 97.9678 132.157 97.9678C130.048 97.9678 128.729 96.2246 128.729 93.1484V93.1338C128.729 90.1309 130.048 88.3291 132.143 88.3291C133.915 88.3291 134.955 89.4717 135.219 90.9658L135.248 91.0977H139.218V90.9951C139.057 87.5967 136.347 84.9746 132.084 84.9746C127.382 84.9746 124.379 88.0947 124.379 93.1191V93.1338C124.379 98.2021 127.338 101.322 132.128 101.322ZM145.971 101.249C148.036 101.249 149.706 100.268 150.6 98.6562H150.688V101H154.965V90.2334C154.965 87.0693 152.343 84.9746 148.285 84.9746C144.14 84.9746 141.649 87.0547 141.415 89.9551L141.4 90.1309H145.312L145.341 89.999C145.546 88.9883 146.513 88.2412 148.109 88.2412C149.779 88.2412 150.688 89.1055 150.688 90.4971V91.4639L146.806 91.6982C142.909 91.9473 140.697 93.6172 140.697 96.4736V96.5029C140.697 99.2715 142.821 101.249 145.971 101.249ZM144.931 96.2832V96.2539C144.931 95.1406 145.795 94.4375 147.45 94.335L150.688 94.1299V95.2578C150.688 96.8984 149.281 98.1289 147.362 98.1289C145.883 98.1289 144.931 97.4404 144.931 96.2832ZM164.047 101H177.714V97.3525H168.471V79.8623H164.047V101ZM186.942 101.322C191.688 101.322 194.721 98.2754 194.721 93.1484V93.1191C194.721 88.0361 191.63 84.9746 186.928 84.9746C182.24 84.9746 179.164 88.0654 179.164 93.1191V93.1484C179.164 98.2607 182.167 101.322 186.942 101.322ZM186.957 97.9678C184.848 97.9678 183.515 96.2246 183.515 93.1484V93.1191C183.515 90.0869 184.862 88.3291 186.928 88.3291C189.008 88.3291 190.37 90.0869 190.37 93.1191V93.1484C190.37 96.21 189.037 97.9678 186.957 97.9678ZM196.933 101H201.21V92.2109C201.21 89.9258 202.44 88.666 204.55 88.666C205.165 88.666 205.751 88.7539 206.103 88.9004V85.1357C205.78 85.0479 205.341 84.9746 204.872 84.9746C203.041 84.9746 201.767 86.1025 201.298 88.0361H201.21V85.2969H196.933V101ZM214.481 101.322C218.964 101.322 221.132 98.6709 221.615 96.3564L221.659 96.1953H217.733L217.704 96.2832C217.396 97.1621 216.327 98.1289 214.569 98.1289C212.387 98.1289 211.024 96.6641 210.98 94.1592H221.791V92.8408C221.791 88.0947 218.905 84.9746 214.306 84.9746C209.706 84.9746 206.762 88.168 206.762 93.1631V93.1777C206.762 98.2021 209.677 101.322 214.481 101.322ZM214.379 88.168C216.151 88.168 217.426 89.2959 217.689 91.4639H211.024C211.303 89.3398 212.621 88.168 214.379 88.168ZM230.463 101.322C234.506 101.322 237.333 99.3008 237.333 96.2246V96.21C237.333 93.8955 235.985 92.6064 232.704 91.918L230.038 91.3467C228.456 91.0098 227.914 90.4824 227.914 89.6768V89.6621C227.914 88.6514 228.837 87.9922 230.316 87.9922C231.898 87.9922 232.821 88.8418 232.968 89.9697L232.982 90.0869H236.923V89.9404C236.82 87.1865 234.491 84.9746 230.316 84.9746C226.317 84.9746 223.739 86.9082 223.739 89.8965V89.9111C223.739 92.2549 225.277 93.7783 228.324 94.4229L230.99 94.9795C232.528 95.3164 233.056 95.7998 233.056 96.6348V96.6494C233.056 97.6602 232.074 98.29 230.463 98.29C228.749 98.29 227.826 97.5723 227.548 96.3418L227.519 96.21H223.344L223.358 96.3418C223.695 99.3154 226.112 101.322 230.463 101.322Z" fill="#DD791D"/>
</g>
<path d="M56.624 247H58.9971L60.0518 243.722H64.7451L65.8086 247H68.1816L63.6816 234.317H61.124L56.624 247ZM62.3281 236.673H62.4775L64.1826 241.973H60.623L62.3281 236.673ZM70.3613 247H78.4473V245.093H72.6289V234.317H70.3613V247ZM80.8906 247H88.9766V245.093H83.1582V234.317H80.8906V247ZM99.374 247H101.642V236.225H105.553V234.317H95.4717V236.225H99.374V247ZM107.926 247H110.193V241.498H116.363V247H118.622V234.317H116.363V239.591H110.193V234.317H107.926V247ZM121.76 247H129.969V245.093H124.027V241.463H129.644V239.661H124.027V236.225H129.969V234.317H121.76V247ZM137.58 247H139.848V234.317H137.58V247ZM142.977 247H145.165V238.264H145.306L151.537 247H153.497V234.317H151.317V243.054H151.177L144.945 234.317H142.977V247ZM156.635 247H158.902V241.823H164.22V239.978H158.902V236.225H164.721V234.317H156.635V247ZM172.701 247.316C176.401 247.316 178.695 244.741 178.695 240.663V240.646C178.695 236.559 176.393 234.001 172.701 234.001C169.019 234.001 166.698 236.559 166.698 240.646V240.663C166.698 244.741 168.983 247.316 172.701 247.316ZM172.701 245.356C170.416 245.356 169.01 243.511 169.01 240.663V240.646C169.01 237.78 170.451 235.961 172.701 235.961C174.951 235.961 176.384 237.78 176.384 240.646V240.663C176.384 243.511 174.96 245.356 172.701 245.356Z" fill="#052A56"/>
<defs>
<filter id="filter0_i" x="315.5" y="176" width="49.5" height="112.5" filterUnits="userSpaceOnUse" color-interpolation-filters="sRGB">
<feFlood flood-opacity="0" result="BackgroundImageFix"/>
<feBlend mode="normal" in="SourceGraphic" in2="BackgroundImageFix" result="shape"/>
<feColorMatrix in="SourceAlpha" type="matrix" values="0 0 0 0 0 0 0 0 0 0 0 0 0 0 0 0 0 0 127 0" result="hardAlpha"/>
<feOffset dx="30" dy="30"/>
<feGaussianBlur stdDeviation="15"/>
<feComposite in2="hardAlpha" operator="arithmetic" k2="-1" k3="1"/>
<feColorMatrix type="matrix" values="0 0 0 0 0.866667 0 0 0 0 0.476089 0 0 0 0 0.115556 0 0 0 1 0"/>
<feBlend mode="luminosity" in2="shape" result="effect1_innerShadow"/>
</filter>
<filter id="filter1_d" x="0.334229" y="0.5" width="364.666" height="320.5" filterUnits="userSpaceOnUse" color-interpolation-filters="sRGB">
<feFlood flood-opacity="0" result="BackgroundImageFix"/>
<feColorMatrix in="SourceAlpha" type="matrix" values="0 0 0 0 0 0 0 0 0 0 0 0 0 0 0 0 0 0 127 0"/>
<feOffset dy="4"/>
<feGaussianBlur stdDeviation="25"/>
<feColorMatrix type="matrix" values="0 0 0 0 0 0 0 0 0 0 0 0 0 0 0 0 0 0 0.25 0"/>
<feBlend mode="normal" in2="BackgroundImageFix" result="effect1_dropShadow"/>
<feBlend mode="normal" in="SourceGraphic" in2="effect1_dropShadow" result="shape"/>
</filter>
<filter id="filter2_d" x="53.7578" y="78.8223" width="187.575" height="30.5" filterUnits="userSpaceOnUse" color-interpolation-filters="sRGB">
<feFlood flood-opacity="0" result="BackgroundImageFix"/>
<feColorMatrix in="SourceAlpha" type="matrix" values="0 0 0 0 0 0 0 0 0 0 0 0 0 0 0 0 0 0 127 0"/>
<feOffset dy="4"/>
<feGaussianBlur stdDeviation="2"/>
<feColorMatrix type="matrix" values="0 0 0 0 0 0 0 0 0 0 0 0 0 0 0 0 0 0 0.25 0"/>
<feBlend mode="normal" in2="BackgroundImageFix" result="effect1_dropShadow"/>
<feBlend mode="normal" in="SourceGraphic" in2="effect1_dropShadow" result="shape"/>
</filter>
<linearGradient id="paint0_linear" x1="415" y1="182.5" x2="273.5" y2="242" gradientUnits="userSpaceOnUse">
<stop stop-color="#F3C214"/>
<stop offset="1" stop-color="#F3C214" stop-opacity="0"/>
</linearGradient>
</defs>
</svg>
